<?xml version="1.0" encoding="UTF-8" standalone="no"?>
<!DOCTYPE svg PUBLIC "-//W3C//DTD SVG 1.1//EN"
 "http://www.w3.org/Graphics/SVG/1.1/DTD/svg11.dtd">
<!-- Generated by graphviz version 2.43.0 (0)
 -->
<!-- Title: G Pages: 1 -->
<svg width="714pt" height="539pt"
 viewBox="0.00 0.00 714.25 538.71" xmlns="http://www.w3.org/2000/svg" xmlns:xlink="http://www.w3.org/1999/xlink">
<g id="graph0" class="graph" transform="scale(1 1) rotate(0) translate(4 534.71)">
<title>G</title><style>.edge>path:hover{stroke-width:8}</style>
<polygon fill="white" stroke="transparent" points="-4,4 -4,-534.71 710.25,-534.71 710.25,4 -4,4"/>
<!-- app_py -->
<g id="node1" class="node">
<title>app_py</title><style>.edge>path:hover{stroke-width:8}</style>
<ellipse fill="#9f5656" stroke="black" cx="679.17" cy="-18" rx="27.16" ry="18"/>
<text text-anchor="middle" x="679.17" y="-15.5" font-family="Helvetica,sans-Serif" font-size="10.00" fill="#ffffff">app.py</text>
</g>
<!-- fastapi -->
<g id="node2" class="node">
<title>fastapi</title><style>.edge>path:hover{stroke-width:8}</style>
<polygon fill="blue" stroke="black" points="373.17,-145 319.17,-145 319.17,-109 373.17,-109 373.17,-145"/>
<text text-anchor="middle" x="346.17" y="-124.5" font-family="Helvetica,sans-Serif" font-size="10.00" fill="white">fastapi</text>
</g>
<!-- fastapi&#45;&gt;app_py -->
<g id="edge1" class="edge">
<title>fastapi&#45;&gt;app_py</title><style>.edge>path:hover{stroke-width:8}</style>
<path fill="none" stroke="black" d="M373.39,-126.31C446.41,-126.46 643.48,-122.23 679.17,-73"/>
<path fill="none" stroke="black" d="M679.17,-72C684.53,-64.61 685.73,-54.99 685.2,-45.98"/>
<polygon fill="blue" stroke="black" points="688.65,-45.33 683.92,-35.85 681.7,-46.21 688.65,-45.33"/>
</g>
<!-- fastapi_applications -->
<g id="node3" class="node">
<title>fastapi_applications</title><style>.edge>path:hover{stroke-width:8}</style>
<polygon fill="blue" stroke="black" points="186.17,-220.21 118.17,-220.21 118.17,-184.21 186.17,-184.21 186.17,-220.21"/>
<text text-anchor="middle" x="152.17" y="-205.21" font-family="Helvetica,sans-Serif" font-size="10.00" fill="white">fastapi.</text>
<text text-anchor="middle" x="152.17" y="-194.21" font-family="Helvetica,sans-Serif" font-size="10.00" fill="white">applications</text>
</g>
<!-- fastapi_applications&#45;&gt;fastapi -->
<g id="edge2" class="edge">
<title>fastapi_applications&#45;&gt;fastapi</title><style>.edge>path:hover{stroke-width:8}</style>
<path fill="none" stroke="black" d="M186.17,-186.65C190.86,-184.71 195.62,-182.78 200.17,-181 237.16,-166.51 279.94,-151.14 309.58,-140.71"/>
<polygon fill="blue" stroke="black" points="310.83,-143.98 319.11,-137.36 308.51,-137.37 310.83,-143.98"/>
</g>
<!-- fastapi_background -->
<g id="node4" class="node">
<title>fastapi_background</title><style>.edge>path:hover{stroke-width:8}</style>
<ellipse fill="#4cb34c" stroke="black" cx="537.17" cy="-202.21" rx="47.25" ry="21.43"/>
<text text-anchor="middle" x="537.17" y="-205.21" font-family="Helvetica,sans-Serif" font-size="10.00" fill="#000000">fastapi.</text>
<text text-anchor="middle" x="537.17" y="-194.21" font-family="Helvetica,sans-Serif" font-size="10.00" fill="#000000">background</text>
</g>
<!-- fastapi_background&#45;&gt;fastapi -->
<g id="edge3" class="edge">
<title>fastapi_background&#45;&gt;fastapi</title><style>.edge>path:hover{stroke-width:8}</style>
<path fill="none" stroke="black" d="M502.14,-187.78C468.32,-174.82 417.32,-155.27 382.93,-142.09"/>
<polygon fill="#4cb34c" stroke="black" points="383.86,-138.7 373.27,-138.39 381.35,-145.23 383.86,-138.7"/>
</g>
<!-- fastapi_datastructures -->
<g id="node5" class="node">
<title>fastapi_datastructures</title><style>.edge>path:hover{stroke-width:8}</style>
<ellipse fill="#26d926" stroke="black" cx="127.17" cy="-359.07" rx="55.72" ry="21.43"/>
<text text-anchor="middle" x="127.17" y="-362.07" font-family="Helvetica,sans-Serif" font-size="10.00" fill="#000000">fastapi.</text>
<text text-anchor="middle" x="127.17" y="-351.07" font-family="Helvetica,sans-Serif" font-size="10.00" fill="#000000">datastructures</text>
</g>
<!-- fastapi_datastructures&#45;&gt;fastapi -->
<g id="edge4" class="edge">
<title>fastapi_datastructures&#45;&gt;fastapi</title><style>.edge>path:hover{stroke-width:8}</style>
<path fill="none" stroke="black" d="M86.65,-344.21C66.36,-335.23 43.19,-321.49 29.17,-301.85 3.22,-265.52 -9.55,-243.27 10.17,-203.21"/>
<path fill="none" stroke="black" d="M10.17,-201.21C35.6,-147.12 226.79,-132.86 308.89,-129.21"/>
<polygon fill="#26d926" stroke="black" points="309.19,-132.7 319.04,-128.79 308.9,-125.71 309.19,-132.7"/>
</g>
<!-- fastapi_datastructures&#45;&gt;fastapi_applications -->
<g id="edge5" class="edge">
<title>fastapi_datastructures&#45;&gt;fastapi_applications</title><style>.edge>path:hover{stroke-width:8}</style>
<path fill="none" stroke="black" d="M140.41,-338.33C149.04,-323.3 158.35,-301.82 156.17,-281.64"/>
<path fill="none" stroke="black" d="M156.17,-279.64C154.42,-263.43 153.43,-245.2 152.87,-230.61"/>
<polygon fill="#26d926" stroke="black" points="156.36,-230.13 152.52,-220.25 149.36,-230.37 156.36,-230.13"/>
</g>
<!-- fastapi_param_functions -->
<g id="node7" class="node">
<title>fastapi_param_functions</title><style>.edge>path:hover{stroke-width:8}</style>
<polygon fill="blue" stroke="black" points="127.67,-298.64 38.67,-298.64 38.67,-262.64 127.67,-262.64 127.67,-298.64"/>
<text text-anchor="middle" x="83.17" y="-283.64" font-family="Helvetica,sans-Serif" font-size="10.00" fill="white">fastapi.</text>
<text text-anchor="middle" x="83.17" y="-272.64" font-family="Helvetica,sans-Serif" font-size="10.00" fill="white">param_functions</text>
</g>
<!-- fastapi_datastructures&#45;&gt;fastapi_param_functions -->
<g id="edge6" class="edge">
<title>fastapi_datastructures&#45;&gt;fastapi_param_functions</title><style>.edge>path:hover{stroke-width:8}</style>
<path fill="none" stroke="black" d="M115.61,-337.99C110.23,-328.64 103.76,-317.41 98.03,-307.44"/>
<polygon fill="#26d926" stroke="black" points="101.04,-305.66 93.01,-298.74 94.97,-309.15 101.04,-305.66"/>
</g>
<!-- fastapi_routing -->
<g id="node10" class="node">
<title>fastapi_routing</title><style>.edge>path:hover{stroke-width:8}</style>
<polygon fill="blue" stroke="black" points="238.17,-298.64 184.17,-298.64 184.17,-262.64 238.17,-262.64 238.17,-298.64"/>
<text text-anchor="middle" x="211.17" y="-283.64" font-family="Helvetica,sans-Serif" font-size="10.00" fill="white">fastapi.</text>
<text text-anchor="middle" x="211.17" y="-272.64" font-family="Helvetica,sans-Serif" font-size="10.00" fill="white">routing</text>
</g>
<!-- fastapi_datastructures&#45;&gt;fastapi_routing -->
<g id="edge7" class="edge">
<title>fastapi_datastructures&#45;&gt;fastapi_routing</title><style>.edge>path:hover{stroke-width:8}</style>
<path fill="none" stroke="black" d="M147.93,-339.17C159.09,-329.02 172.97,-316.4 184.87,-305.57"/>
<polygon fill="#26d926" stroke="black" points="187.32,-308.07 192.36,-298.75 182.61,-302.89 187.32,-308.07"/>
</g>
<!-- fastapi_exceptions -->
<g id="node6" class="node">
<title>fastapi_exceptions</title><style>.edge>path:hover{stroke-width:8}</style>
<ellipse fill="#26d926" stroke="black" cx="284.17" cy="-359.07" rx="45.01" ry="21.43"/>
<text text-anchor="middle" x="284.17" y="-362.07" font-family="Helvetica,sans-Serif" font-size="10.00" fill="#000000">fastapi.</text>
<text text-anchor="middle" x="284.17" y="-351.07" font-family="Helvetica,sans-Serif" font-size="10.00" fill="#000000">exceptions</text>
</g>
<!-- fastapi_exceptions&#45;&gt;fastapi -->
<g id="edge8" class="edge">
<title>fastapi_exceptions&#45;&gt;fastapi</title><style>.edge>path:hover{stroke-width:8}</style>
<path fill="none" stroke="black" d="M266.17,-279.64C245.77,-243.98 199.12,-241.44 214.17,-203.21"/>
</g>
<!-- fastapi_exceptions&#45;&gt;fastapi_applications -->
<g id="edge9" class="edge">
<title>fastapi_exceptions&#45;&gt;fastapi_applications</title><style>.edge>path:hover{stroke-width:8}</style>
<path fill="none" stroke="black" d="M282.57,-337.76C280.58,-321.65 276.12,-299.03 266.17,-281.64"/>
<path fill="none" stroke="black" d="M266.17,-279.64C260.05,-268.94 256.79,-267.13 247.17,-259.43 231.27,-246.69 212.19,-234.84 195.32,-225.33"/>
<polygon fill="#26d926" stroke="black" points="196.65,-222.07 186.2,-220.3 193.27,-228.2 196.65,-222.07"/>
</g>
<!-- fastapi_responses -->
<g id="node9" class="node">
<title>fastapi_responses</title><style>.edge>path:hover{stroke-width:8}</style>
<polygon fill="blue" stroke="black" points="509.17,-298.64 447.17,-298.64 447.17,-262.64 509.17,-262.64 509.17,-298.64"/>
<text text-anchor="middle" x="478.17" y="-283.64" font-family="Helvetica,sans-Serif" font-size="10.00" fill="white">fastapi.</text>
<text text-anchor="middle" x="478.17" y="-272.64" font-family="Helvetica,sans-Serif" font-size="10.00" fill="white">responses</text>
</g>
<!-- fastapi_exceptions&#45;&gt;fastapi_responses -->
<g id="edge10" class="edge">
<title>fastapi_exceptions&#45;&gt;fastapi_responses</title><style>.edge>path:hover{stroke-width:8}</style>
<path fill="none" stroke="black" d="M317.96,-344.75C351.2,-331.66 401.99,-311.65 437.44,-297.68"/>
<polygon fill="#26d926" stroke="black" points="438.99,-300.84 447.01,-293.92 436.42,-294.33 438.99,-300.84"/>
</g>
<!-- fastapi_exceptions&#45;&gt;fastapi_routing -->
<g id="edge11" class="edge">
<title>fastapi_exceptions&#45;&gt;fastapi_routing</title><style>.edge>path:hover{stroke-width:8}</style>
<path fill="none" stroke="black" d="M266.12,-339.17C256.61,-329.21 244.83,-316.88 234.62,-306.19"/>
<polygon fill="#26d926" stroke="black" points="236.95,-303.56 227.51,-298.75 231.89,-308.4 236.95,-303.56"/>
</g>
<!-- fastapi_param_functions&#45;&gt;fastapi -->
<g id="edge12" class="edge">
<title>fastapi_param_functions&#45;&gt;fastapi</title><style>.edge>path:hover{stroke-width:8}</style>
<path fill="none" stroke="black" d="M47.27,-262.46C23.4,-248.43 -1.58,-227.08 10.17,-203.21"/>
</g>
<!-- fastapi_requests -->
<g id="node8" class="node">
<title>fastapi_requests</title><style>.edge>path:hover{stroke-width:8}</style>
<ellipse fill="#4cb34c" stroke="black" cx="280.17" cy="-202.21" rx="38.37" ry="21.43"/>
<text text-anchor="middle" x="280.17" y="-205.21" font-family="Helvetica,sans-Serif" font-size="10.00" fill="#000000">fastapi.</text>
<text text-anchor="middle" x="280.17" y="-194.21" font-family="Helvetica,sans-Serif" font-size="10.00" fill="#000000">requests</text>
</g>
<!-- fastapi_requests&#45;&gt;fastapi -->
<g id="edge13" class="edge">
<title>fastapi_requests&#45;&gt;fastapi</title><style>.edge>path:hover{stroke-width:8}</style>
<path fill="none" stroke="black" d="M296.82,-182.74C305.02,-173.65 315.02,-162.56 323.86,-152.75"/>
<polygon fill="#4cb34c" stroke="black" points="326.56,-154.98 330.65,-145.21 321.36,-150.3 326.56,-154.98"/>
</g>
<!-- fastapi_responses&#45;&gt;fastapi -->
<g id="edge14" class="edge">
<title>fastapi_responses&#45;&gt;fastapi</title><style>.edge>path:hover{stroke-width:8}</style>
<path fill="none" stroke="black" d="M447.11,-265.02C414.62,-249.6 367.93,-227.04 365.17,-223.43 350.31,-204 346.18,-176.03 345.4,-155.39"/>
<polygon fill="blue" stroke="black" points="348.9,-155.3 345.26,-145.35 341.9,-155.4 348.9,-155.3"/>
</g>
<!-- fastapi_routing&#45;&gt;fastapi -->
<g id="edge15" class="edge">
<title>fastapi_routing&#45;&gt;fastapi</title><style>.edge>path:hover{stroke-width:8}</style>
<path fill="none" stroke="black" d="M208.71,-262.59C207.13,-246.65 206.58,-222.49 214.17,-203.21"/>
<path fill="none" stroke="black" d="M214.17,-201.21C229.26,-162.87 275.61,-144.01 309.13,-135.16"/>
<polygon fill="blue" stroke="black" points="310.19,-138.51 319.07,-132.73 308.52,-131.71 310.19,-138.51"/>
</g>
<!-- fastapi_routing&#45;&gt;fastapi_applications -->
<g id="edge16" class="edge">
<title>fastapi_routing&#45;&gt;fastapi_applications</title><style>.edge>path:hover{stroke-width:8}</style>
<path fill="none" stroke="black" d="M197.78,-262.3C190.03,-252.26 180.15,-239.45 171.56,-228.33"/>
<polygon fill="blue" stroke="black" points="174.18,-226 165.3,-220.22 168.64,-230.28 174.18,-226"/>
</g>
<!-- fastapi_staticfiles -->
<g id="node11" class="node">
<title>fastapi_staticfiles</title><style>.edge>path:hover{stroke-width:8}</style>
<ellipse fill="#49ac49" stroke="black" cx="613.17" cy="-359.07" rx="41.94" ry="21.43"/>
<text text-anchor="middle" x="613.17" y="-362.07" font-family="Helvetica,sans-Serif" font-size="10.00" fill="#000000">fastapi.</text>
<text text-anchor="middle" x="613.17" y="-351.07" font-family="Helvetica,sans-Serif" font-size="10.00" fill="#000000">staticfiles</text>
</g>
<!-- fastapi_staticfiles&#45;&gt;app_py -->
<g id="edge17" class="edge">
<title>fastapi_staticfiles&#45;&gt;app_py</title><style>.edge>path:hover{stroke-width:8}</style>
<path fill="none" stroke="black" d="M632.99,-340.28C642.96,-330.09 654.18,-316.44 660.17,-301.85 698.93,-207.44 619.27,-155.64 679.17,-73"/>
</g>
<!-- fastapi_websockets -->
<g id="node12" class="node">
<title>fastapi_websockets</title><style>.edge>path:hover{stroke-width:8}</style>
<ellipse fill="#4cb34c" stroke="black" cx="423.17" cy="-202.21" rx="48.58" ry="21.43"/>
<text text-anchor="middle" x="423.17" y="-205.21" font-family="Helvetica,sans-Serif" font-size="10.00" fill="#000000">fastapi.</text>
<text text-anchor="middle" x="423.17" y="-194.21" font-family="Helvetica,sans-Serif" font-size="10.00" fill="#000000">websockets</text>
</g>
<!-- fastapi_websockets&#45;&gt;fastapi -->
<g id="edge18" class="edge">
<title>fastapi_websockets&#45;&gt;fastapi</title><style>.edge>path:hover{stroke-width:8}</style>
<path fill="none" stroke="black" d="M403.74,-182.74C393.99,-173.47 382.05,-162.12 371.58,-152.16"/>
<polygon fill="#4cb34c" stroke="black" points="373.93,-149.57 364.27,-145.21 369.11,-154.64 373.93,-149.57"/>
</g>
<!-- starlette -->
<g id="node13" class="node">
<title>starlette</title><style>.edge>path:hover{stroke-width:8}</style>
<ellipse fill="#1010f9" stroke="black" cx="414.17" cy="-512.71" rx="30.72" ry="18"/>
<text text-anchor="middle" x="414.17" y="-510.21" font-family="Helvetica,sans-Serif" font-size="10.00" fill="#ffffff">starlette</text>
</g>
<!-- starlette&#45;&gt;fastapi -->
<g id="edge19" class="edge">
<title>starlette&#45;&gt;fastapi</title><style>.edge>path:hover{stroke-width:8}</style>
<path fill="none" stroke="black" d="M537.17,-279.64C548.5,-233.42 631.78,-246.58 612.17,-203.21"/>
<path fill="none" stroke="black" d="M612.17,-201.21C607.09,-189.98 603.91,-187.06 593.17,-181 525.78,-142.96 433.94,-132.18 383.38,-129.15"/>
<polygon fill="#1010f9" stroke="black" points="383.41,-125.65 373.24,-128.62 383.04,-132.64 383.41,-125.65"/>
</g>
<!-- starlette&#45;&gt;fastapi_applications -->
<g id="edge20" class="edge">
<title>starlette&#45;&gt;fastapi_applications</title><style>.edge>path:hover{stroke-width:8}</style>
<path fill="none" stroke="black" d="M284.17,-436.49C258.42,-397.21 235.46,-400.27 211.17,-360.07"/>
<path fill="none" stroke="black" d="M211.17,-358.07C189.53,-322.25 160.66,-323.25 156.17,-281.64"/>
</g>
<!-- starlette&#45;&gt;fastapi_background -->
<g id="edge21" class="edge">
<title>starlette&#45;&gt;fastapi_background</title><style>.edge>path:hover{stroke-width:8}</style>
<path fill="none" stroke="black" d="M537.17,-279.64C540.79,-264.85 541.17,-247.97 540.48,-233.83"/>
<polygon fill="#1010f9" stroke="black" points="543.96,-233.38 539.78,-223.64 536.97,-233.86 543.96,-233.38"/>
</g>
<!-- starlette&#45;&gt;fastapi_datastructures -->
<g id="edge22" class="edge">
<title>starlette&#45;&gt;fastapi_datastructures</title><style>.edge>path:hover{stroke-width:8}</style>
<path fill="none" stroke="black" d="M386.83,-504.52C356.27,-494.92 307.96,-474.78 284.17,-438.49"/>
<path fill="none" stroke="black" d="M284.17,-436.49C271.44,-417.07 217.71,-393.52 176.61,-377.74"/>
<polygon fill="#1010f9" stroke="black" points="177.59,-374.37 167,-374.1 175.12,-380.92 177.59,-374.37"/>
</g>
<!-- starlette&#45;&gt;fastapi_exceptions -->
<g id="edge23" class="edge">
<title>starlette&#45;&gt;fastapi_exceptions</title><style>.edge>path:hover{stroke-width:8}</style>
<path fill="none" stroke="black" d="M284.17,-436.49C275.36,-423.06 274.89,-405.24 276.83,-390.19"/>
<polygon fill="#1010f9" stroke="black" points="280.29,-390.74 278.49,-380.29 273.38,-389.58 280.29,-390.74"/>
</g>
<!-- starlette&#45;&gt;fastapi_requests -->
<g id="edge24" class="edge">
<title>starlette&#45;&gt;fastapi_requests</title><style>.edge>path:hover{stroke-width:8}</style>
<path fill="none" stroke="black" d="M284.17,-436.49C233.36,-358.99 426.36,-436.9 478.17,-360.07"/>
<path fill="none" stroke="black" d="M478.17,-358.07C489.86,-340.73 373.06,-262.55 313.62,-224.35"/>
<polygon fill="#1010f9" stroke="black" points="315.25,-221.24 304.94,-218.8 311.48,-227.14 315.25,-221.24"/>
</g>
<!-- starlette&#45;&gt;fastapi_responses -->
<g id="edge25" class="edge">
<title>starlette&#45;&gt;fastapi_responses</title><style>.edge>path:hover{stroke-width:8}</style>
<path fill="none" stroke="black" d="M478.17,-358.07C487.75,-343.85 487.66,-324.52 485.22,-308.86"/>
<polygon fill="#1010f9" stroke="black" points="488.6,-307.86 483.25,-298.71 481.72,-309.19 488.6,-307.86"/>
</g>
<!-- starlette&#45;&gt;fastapi_routing -->
<g id="edge26" class="edge">
<title>starlette&#45;&gt;fastapi_routing</title><style>.edge>path:hover{stroke-width:8}</style>
<path fill="none" stroke="black" d="M211.17,-358.07C202.36,-343.49 202.39,-324.31 204.6,-308.81"/>
<polygon fill="#1010f9" stroke="black" points="208.08,-309.24 206.4,-298.78 201.19,-308 208.08,-309.24"/>
</g>
<!-- starlette&#45;&gt;fastapi_staticfiles -->
<g id="edge27" class="edge">
<title>starlette&#45;&gt;fastapi_staticfiles</title><style>.edge>path:hover{stroke-width:8}</style>
<path fill="none" stroke="black" d="M444.97,-511.83C485.4,-510.23 555.73,-501.03 594.17,-458.71 610.72,-440.48 614.8,-412.37 615.12,-390.81"/>
<polygon fill="#1010f9" stroke="black" points="618.62,-390.48 615.01,-380.52 611.62,-390.56 618.62,-390.48"/>
</g>
<!-- starlette&#45;&gt;fastapi_websockets -->
<g id="edge28" class="edge">
<title>starlette&#45;&gt;fastapi_websockets</title><style>.edge>path:hover{stroke-width:8}</style>
<path fill="none" stroke="black" d="M478.17,-358.07C502.16,-322.49 526.95,-323.32 537.17,-281.64"/>
<path fill="none" stroke="black" d="M537.17,-279.64C541.49,-262.03 500.38,-238.35 466.33,-222.03"/>
<polygon fill="#1010f9" stroke="black" points="467.5,-218.72 456.96,-217.64 464.53,-225.05 467.5,-218.72"/>
</g>
<!-- starlette_staticfiles -->
<g id="node14" class="node">
<title>starlette_staticfiles</title><style>.edge>path:hover{stroke-width:8}</style>
<ellipse fill="#4c4cb3" stroke="black" cx="543.17" cy="-437.49" rx="41.94" ry="21.43"/>
<text text-anchor="middle" x="543.17" y="-440.49" font-family="Helvetica,sans-Serif" font-size="10.00" fill="#ffffff">starlette.</text>
<text text-anchor="middle" x="543.17" y="-429.49" font-family="Helvetica,sans-Serif" font-size="10.00" fill="#ffffff">staticfiles</text>
</g>
<!-- starlette_staticfiles&#45;&gt;fastapi_staticfiles -->
<g id="edge29" class="edge">
<title>starlette_staticfiles&#45;&gt;fastapi_staticfiles</title><style>.edge>path:hover{stroke-width:8}</style>
<path fill="none" stroke="black" d="M560.11,-417.99C568.82,-408.49 579.58,-396.74 589.13,-386.32"/>
<polygon fill="#4c4cb3" stroke="black" points="591.96,-388.4 596.14,-378.66 586.8,-383.67 591.96,-388.4"/>
</g>
<!-- starlette_status -->
<g id="node15" class="node">
<title>starlette_status</title><style>.edge>path:hover{stroke-width:8}</style>
<ellipse fill="#5353b6" stroke="black" cx="612.17" cy="-280.64" rx="38.78" ry="21.43"/>
<text text-anchor="middle" x="612.17" y="-283.64" font-family="Helvetica,sans-Serif" font-size="10.00" fill="#ffffff">starlette.</text>
<text text-anchor="middle" x="612.17" y="-272.64" font-family="Helvetica,sans-Serif" font-size="10.00" fill="#ffffff">status</text>
</g>
<!-- starlette_status&#45;&gt;fastapi -->
<g id="edge30" class="edge">
<title>starlette_status&#45;&gt;fastapi</title><style>.edge>path:hover{stroke-width:8}</style>
<path fill="none" stroke="black" d="M616.54,-259.54C619.01,-243.55 620.2,-220.99 612.17,-203.21"/>
</g>
</g>
</svg>
